<svg xmlns="http://www.w3.org/2000/svg" xmlns:xlink="http://www.w3.org/1999/xlink" width="120" zoomAndPan="magnify" viewBox="0 0 90 89.999999" height="120" preserveAspectRatio="xMidYMid meet" version="1.0"><defs><clipPath id="fcbe1dc9a3"><path d="M 9.898438 13.542969 L 80.398438 13.542969 L 80.398438 76.542969 L 9.898438 76.542969 Z M 9.898438 13.542969 " clip-rule="nonzero"/></clipPath></defs><rect x="-9" width="108" fill="#ffffff" y="-9" height="107.999999" fill-opacity="1"/><rect x="-9" width="108" fill="#ffffff" y="-9" height="107.999999" fill-opacity="1"/><rect x="-9" width="108" fill="#dfdfdf" y="-9" height="107.999999" fill-opacity="1"/><g clip-path="url(#fcbe1dc9a3)"><path fill="#c6c6c6" d="M 67.605469 13.542969 L 22.390625 13.542969 C 15.539062 13.542969 9.953125 19.125 9.953125 25.976562 L 9.953125 64.410156 C 9.953125 71.261719 15.539062 76.847656 22.390625 76.847656 L 67.605469 76.847656 C 74.457031 76.847656 80.042969 71.261719 80.042969 64.410156 L 80.042969 25.976562 C 80.042969 19.125 74.457031 13.542969 67.605469 13.542969 Z M 73.257812 41.394531 L 63.582031 31.71875 C 62.292969 30.429688 60.214844 30.386719 58.878906 31.628906 L 42.195312 47.136719 L 33.738281 38.683594 C 32.449219 37.394531 30.371094 37.347656 29.035156 38.59375 L 16.738281 50.011719 L 16.738281 25.976562 C 16.738281 22.855469 19.269531 20.324219 22.390625 20.324219 L 67.605469 20.324219 C 70.726562 20.324219 73.257812 22.855469 73.257812 25.976562 Z M 73.257812 41.394531 " fill-opacity="1" fill-rule="nonzero"/></g></svg>